# xmcd CD database file
#
# Track frame offsets:
#	150
#	14148
#	28714
#	44171
#	59313
#	74709
#	93122
#	108864
#	122904
#	137288
#	151774
#	168264
#	182256
#
# Disc length: 2636 seconds
#
# Revision: 1
# Processed by: cddbd v1.5.2PL0 Copyright (c) Steve Scherf et al.
# Submitted via: CDex 1.51
#
DISCID=a90a4a0d
DTITLE=Dustin Lynch - Current Mood
DYEAR=2017
DGENRE=Country
TTITLE0=I'd Be Jealous Too
TTITLE1=Seein' Red
TTITLE2=Small Town Boy
TTITLE3=Why We Call Each Other
TTITLE4=Here We Come
TTITLE5=Love Me Or Leave Me Alone
TTITLE6=Back On It
TTITLE7=I Wish You Were Beer
TTITLE8=State Lines
TTITLE9=Party Song
TTITLE10=New Girl
TTITLE11=Why Not Tonight
TTITLE12=Sun Don't Go Down On That
EXTD=YEAR: 2017
EXTT0=
EXTT1=
EXTT2=
EXTT3=
EXTT4=
EXTT5=
EXTT6=
EXTT7=
EXTT8=
EXTT9=
EXTT10=
EXTT11=
EXTT12=
PLAYORDER=
